M48
INCH,TZ
FMAT,2
ICI,OFF
%
T1C.01
X70Y7750
X70Y8580
X1560Y7460
X240Y6400
X220Y5420
X250Y4450
X1160Y3420
X1540Y2280
X2140Y3330
X1570Y4430
X1950Y5870
X2830Y5920
X3520Y5180
X4080Y4430
X5420Y4410
X5680Y5250
X6210Y5740
X6750Y6020
X6900Y5490
X7890Y5560
X7890Y6620
X9290Y6600
X9770Y6680
X9560Y7560
X8910Y7380
X7890Y7970
X7480Y8160
X7420Y7690
X6960Y8080
X6810Y9310
X7350Y9250
X7890Y9260
X8950Y9260
X9360Y8860
X9910Y8860
X10100Y9260
X10550Y9710
X10940Y9090
X10430Y8650
X10600Y8000
X11440Y8050
X11960Y6960
X11560Y5840
X11270Y5360
X11410Y4780
X11760Y4510
X12640Y3810
X13050Y4680
X13560Y3730
X15030Y3170
X13870Y1320
X13380Y2480
X12370Y3040
X11110Y2300
X11450Y1300
X11110Y930
X10170Y1200
X9600Y1770
X10010Y3250
X9860Y3810
X10300Y4800
X10300Y5280
X9580Y4540
X8810Y4940
X8810Y4330
X8360Y3830
X7870Y4450
X6830Y4410
X6330Y2330
X4920Y2610
X4360Y2880
X3970Y2630
X4060Y3240
X2920Y4430
X3770Y5750
X4230Y6840
X4960Y6830
X5670Y6840
X5680Y7560
X5670Y8260
X4970Y8260
X4950Y7580
X4230Y7570
X4230Y8260
X3480Y9030
X2350Y9030
X1870Y8550
X1350Y9030
X440Y11030
X2390Y11070
X3480Y12260
X3480Y11340
X3480Y10100
X3920Y10190
X4550Y9780
X5330Y9690
X4920Y11010
X4500Y11240
X4940Y11680
X4940Y12250
X6370Y12260
X7490Y12260
X8840Y12260
X9470Y11830
X10100Y12260
X10100Y11290
X9650Y10870
X10100Y10400
X10700Y11250
X11840Y11990
X12700Y11850
X13190Y11710
X14650Y10310
X14220Y10040
X14090Y9480
X14470Y9480
X15720Y9980
X15710Y10560
X17050Y11570
X15680Y11530
X14490Y11850
X14170Y11260
X13210Y11070
X13160Y10600
X12590Y11080
X12590Y10480
X12020Y9540
X11620Y9060
X12290Y8780
X12330Y8400
X14120Y6820
X14680Y6120
X14200Y5520
X14440Y4960
X15040Y5050
X16010Y4960
X16340Y5240
X16950Y4750
X16990Y4100
X16540Y3760
X16040Y2970
X16970Y2260
X16970Y2820
X15990Y1880
X16040Y900
X16190Y420
X16560Y1040
X16990Y1670
X18330Y820
X19110Y1380
X19210Y2020
X18120Y3320
X18120Y3860
X18160Y5020
X18530Y5960
X17850Y5760
X16500Y6040
X15660Y6220
X15380Y6530
X15070Y6840
X14520Y7220
X14130Y7240
X15070Y7430
X15930Y6970
X16520Y7130
X16240Y7440
X16870Y8400
X17570Y8400
X17510Y9720
X16600Y9700
X16880Y10000
X17160Y10270
X17060Y10700
X18520Y12130
X19310Y12000
X18470Y11190
X19780Y9870
X20400Y8870
X21330Y7530
X21460Y6180
X21330Y4760
X20060Y5380
X19780Y5020
X19570Y4210
X20390Y2440
X19600Y2020
X20210Y1370
X22260Y2440
T2C.0236
X11760Y2960
X12941Y2960
X11780Y950
X12961Y950
T3C.034
X18330Y9040
X22310Y5740
T4C.0342
X18330Y6678
X19117Y7465
X19117Y6678
X18330Y7465
X18330Y8253
X19117Y9040
X19117Y8253
X22310Y6527
T5C.037
X490Y570
X490Y1570
X1490Y1570
X1490Y570
X2490Y570
X2490Y1570
X3490Y1570
X3490Y570
X4490Y570
X4490Y1570
X5930Y580
X5930Y1580
X6930Y1580
X6930Y580
X7930Y580
X7930Y1580
T6C.038
X22020Y3140
X22020Y9140
T7C.039
X19000Y10500
X20570Y12070
T9C.043
X21783Y5252
X21783Y7024
T10C.062
X1450Y11040
T11C.0669
X450Y10040
X450Y12040
X2450Y12040
X2450Y10040
T12C.09
X21480Y940
X21480Y11460
T13C.09
X-1230Y940
T8C.0394
X21291Y8382G85X22275Y8382
X21291Y3894G85X22275Y3894
M30
